<?xml version="1.0" encoding="utf-8"?>
<!-- Generator: Adobe Illustrator 22.0.1, SVG Export Plug-In . SVG Version: 6.00 Build 0)  -->
<svg version="1.1" id="Layer_1" focusable="false" xmlns="http://www.w3.org/2000/svg" xmlns:xlink="http://www.w3.org/1999/xlink"
	 x="0px" y="0px" viewBox="0 0 384 512" style="enable-background:new 0 0 384 512;" xml:space="preserve">
<style type="text/css">
	.st0{fill:#FFFFFF;}
</style>
<path class="st0" d="M224,124V0H36C16.1,0,0,16.1,0,36v440c0,19.9,16.1,36,36,36h312c19.9,0,36-16.1,36-36V160H260
	C240.2,160,224,143.8,224,124z M300.5,347.4L204,443.1c-6.6,6.6-17.4,6.6-24,0l-96.4-95.7c-10.2-10.1-3-27.4,11.2-27.4H160v-80
	c0-8.8,7.2-16,16-16h32c8.8,0,16,7.2,16,16v80h65.2C303.5,320,310.6,337.3,300.5,347.4L300.5,347.4z M377,105L279.1,7
	c-4.5-4.5-10.6-7-17-7H256v128h128v-6.1C384,115.6,381.5,109.5,377,105z"/>
</svg>
